mtllib materials.mtl
v 0.03714293 -0.1572856 0.1250001
v -0.03285712 -0.1572856 0.1250001
v -0.03285712 -0.1272856 0.08499998
v 0.03714287 -0.1272856 0.08499998
v 0.0371429 -0.1572856 0.065
v 0.03714293 -0.1172856 0.04500002
v -0.03285715 -0.1172856 0.04500002
v -0.03285709 -0.1572856 0.065
v -0.03285712 -0.1572856 -0.07499999
v -0.03285712 -0.1572856 0.06500006
v 0.03714287 -0.1572857 0.06500006
v 0.03714287 -0.1572856 -0.07499999
v -0.03285712 -0.1172855 -0.05500001
v 0.03714287 -0.1172856 -0.05500001
v 0.03714287 -0.1172856 0.04500008
v -0.03285712 -0.1172856 0.04500008
v -0.03285718 -0.1572856 -0.135
v 0.0371429 -0.1572856 -0.135
v 0.0371429 -0.1272856 -0.09499991
v -0.03285709 -0.1272856 -0.09499991
v -0.03285712 -0.1572856 -0.07499993
v -0.03285715 -0.1172856 -0.05499995
v 0.03714293 -0.1172856 -0.05499995
v 0.03714287 -0.1572856 -0.07499993
v 0.02714291 -0.1172856 0.0250001
v -0.02285713 -0.1172856 0.0250001
v -0.02285716 0.1127144 0.0250001
v 0.02714285 0.1127144 0.0250001
v 0.02714291 -0.1172856 -0.03499997
v 0.02714288 0.1127144 -0.03499997
v -0.02285716 0.1127144 -0.03499997
v -0.0228571 -0.1172856 -0.03499997
v -0.03285709 0.1137145 0.08000004
v -0.0228571 0.1937144 0.08000004
v 0.001142859 0.1517144 0.08000004
v 0.06114289 0.1117145 0.08000004
v -0.03285709 0.1137145 -0.07999992
v 0.06114289 0.1117145 -0.07999992
v 0.001142859 0.1517144 -0.07999992
v -0.0228571 0.1937144 -0.07999992
v -0.01285711 0.07271445 -0.004999995
v -0.01285711 0.1127144 -0.004999995
v -0.01285711 0.1127144 0.04500008
v -0.01285711 0.09271443 0.02500004
v 0.01714295 0.07271445 -0.004999995
v 0.01714295 0.09271443 0.02500004
v 0.01714295 0.1127144 0.04500008
v 0.01714295 0.1127144 -0.004999995
v 0.01714286 0.07271445 -0.004999936
v 0.01714286 0.1127144 -0.004999936
v 0.01714286 0.1127144 -0.05500001
v 0.01714286 0.09271443 -0.03499997
v -0.0128572 0.07271445 -0.004999936
v -0.0128572 0.09271443 -0.03499997
v -0.0128572 0.1127144 -0.05500001
v -0.0128572 0.1127144 -0.004999936
vn 2.402379E-09 0.8000009 0.5999989
vn 3.487408E-08 -0.4472137 -0.8944272
vn -2.148909E-07 -1 2.173084E-07
vn -4.777695E-09 0.9701425 0.2425356
vn 1 7.569226E-07 4.447581E-07
vn -1 -9.373665E-07 -8.600136E-08
vn -3.750378E-07 -1 -1.748456E-07
vn 8.488341E-07 1 5.939403E-07
vn -1 -2.048902E-08 8.149216E-10
vn 1 2.048915E-08 -3.492383E-09
vn 1.427879E-08 0.4472125 -0.8944278
vn 7.096571E-07 0.4472136 0.8944272
vn 7.684421E-07 0.4472136 -0.8944272
vn 1.427972E-08 0.4472126 0.8944277
vn -3.816508E-08 0.8000007 -0.599999
vn 1.843794E-08 -0.4472135 0.8944273
vn 2.148908E-07 -1 -4.24629E-08
vn -9.678521E-09 0.9701425 -0.2425358
vn -1 7.569225E-07 -3.851535E-07
vn 1 -9.373665E-07 2.639685E-08
vn -7.450653E-09 2.915361E-09 1
vn 7.450653E-09 -2.915407E-09 -1
vn 3.552731E-07 -1 2.150863E-14
vn -5.613391E-08 1 3.265522E-14
vn 1 1.910425E-07 2.578547E-07
vn -1 -1.910425E-07 -2.575308E-07
vn -4.659409E-08 0 1
vn -9.767956E-08 0 -1
vn -0.9922779 0.1240348 -1.696543E-10
vn 0.5546997 0.8320507 -5.54688E-09
vn -0.02127151 -0.9997737 -1.371501E-08
vn 0.8682432 0.4961389 1.328867E-10
vn -1 8.46656E-09 -5.71539E-08
vn 1 1.269989E-08 -1.802886E-08
vn -3.67533E-08 6.394915E-08 -1
vn -7.93325E-10 -0.7071078 0.7071058
vn 2.327131E-08 -0.8320508 0.5546995
vn 3.849293E-08 1 2.980211E-08
vn 1 8.466576E-09 1.445767E-07
vn -1 1.269989E-08 -6.939394E-08
vn -5.066951E-08 3.023677E-07 1
vn 6.261048E-08 -0.7071081 -0.7071055
vn 2.522206E-08 -0.832051 -0.5546991
vn -3.849289E-08 1 -5.066393E-07
vt -0.1361752 -0.113368
vt -0.1326374 -0.1194082
vt -0.128323 -0.1168812
vt -0.1318608 -0.110841
vt 0.1550806 -0.1280469
vt 0.1512575 -0.1257265
vt 0.1476256 -0.1317106
vt 0.1514487 -0.134031
vt 0.06464384 -0.05388104
vt 0.05899338 -0.05186302
vt 0.05663902 -0.05845521
vt 0.06228948 -0.06047323
vt -0.09382359 -0.07590136
vt -0.09085776 -0.08224201
vt -0.08712302 -0.0804951
vt -0.09008885 -0.07415444
vt -0.04382559 -0.1972722
vt -0.04533682 -0.192506
vt -0.04801051 -0.1893673
vt -0.048708 -0.1937847
vt 0.04382554 -0.1972722
vt 0.04870794 -0.1937847
vt 0.04801045 -0.1893673
vt 0.04533676 -0.192506
vt 0.0434547 -0.05374651
vt 0.05663909 -0.05845522
vt 0.05899345 -0.05186303
vt 0.04580906 -0.04715431
vt -0.04533827 -0.05441914
vt -0.04769263 -0.04782695
vt -0.05711005 -0.05119032
vt -0.0547557 -0.05778251
vt 0.06010004 -0.1856475
vt 0.05614762 -0.183555
vt 0.04801028 -0.1893674
vt 0.04870777 -0.1937848
vt -0.06010004 -0.1856475
vt -0.04870778 -0.1937848
vt -0.04801028 -0.1893674
vt -0.05614762 -0.183555
vt 0.1245818 -0.0732749
vt 0.126516 -0.06654741
vt 0.1202838 -0.07203923
vt -0.1514487 -0.134031
vt -0.1476256 -0.1317106
vt -0.1550806 -0.1280469
vt 0.1265159 -0.0665472
vt 0.1222178 -0.06531154
vt 0.1202837 -0.07203903
vt -0.1476256 -0.1317106
vt -0.1512575 -0.1257266
vt -0.1550806 -0.1280469
vt 0.06867851 -0.03698476
vt 0.06877849 -0.02998546
vt 0.06377899 -0.02991405
vt 0.06367901 -0.03691333
vt -0.1245817 -0.0732748
vt -0.1202837 -0.07203914
vt -0.1222178 -0.06531163
vt -0.1265158 -0.0665473
vt 0.0378042 -0.05172859
vt 0.04345466 -0.0537466
vt 0.04580902 -0.04715441
vt 0.04015856 -0.04513638
vt -0.002737889 -0.03751828
vt -0.004275849 -0.03068932
vt -0.008298205 -0.0315952
vt -0.006760243 -0.03842416
vt 0.0649824 -0.1821601
vt 0.05998374 -0.1820438
vt 0.05614758 -0.1835551
vt 0.06009999 -0.1856475
vt -0.06498229 -0.1821601
vt -0.06009988 -0.1856476
vt -0.05614746 -0.1835551
vt -0.05998363 -0.1820439
vt -0.1493693 -0.1082257
vt -0.1471333 -0.1126978
vt -0.1265614 -0.1024119
vt -0.1287975 -0.09793978
vt 0.1493693 -0.1082257
vt 0.1287975 -0.09793977
vt 0.1265614 -0.1024119
vt 0.1471333 -0.1126978
vt 0.05489009 -0.05145953
vt 0.04923963 -0.04944151
vt 0.04755795 -0.05415022
vt 0.0532084 -0.05616824
vt -0.0548901 -0.05145948
vt -0.05320842 -0.05616819
vt -0.04755796 -0.05415018
vt -0.04923965 -0.04944146
vt -0.04963782 -0.1882049
vt -0.03626933 -0.169489
vt -0.04115174 -0.1660016
vt -0.05452023 -0.1847175
vt 0.04963782 -0.1882049
vt 0.05452023 -0.1847175
vt 0.04115173 -0.1660016
vt 0.03626933 -0.169489
vt -0.1260248 -0.1032616
vt -0.1193166 -0.09878948
vt -0.1241465 -0.09852116
vt -0.1304075 -0.09494344
vt 0.1260248 -0.1032616
vt 0.1304075 -0.09494345
vt 0.1241465 -0.09852116
vt 0.1193166 -0.09878949
vt 0.01635357 -0.177684
vt 0.03021882 -0.1696993
vt 0.02619542 -0.1627128
vt 0.01233017 -0.1706974
vt -0.09843349 0.01526346
vt -0.09452979 0.009200366
vt -0.08107699 0.01786191
vt -0.0849807 0.023925
vt 0.05899714 -0.05597426
vt 0.06219016 -0.04713092
vt 0.04714108 -0.04169723
vt 0.04394806 -0.05054057
vt -0.1247234 -0.05395687
vt -0.1219859 -0.03819279
vt -0.126752 -0.03736517
vt -0.1294894 -0.05312926
vt 0.04103543 -0.1710003
vt 0.03871048 -0.1677453
vt 0.03464181 -0.1706515
vt 0.03743175 -0.1711165
vt -0.04103541 -0.1710003
vt -0.03743174 -0.1711165
vt -0.03464179 -0.1706515
vt -0.03871046 -0.1677453
vt 0.1305864 -0.1033063
vt 0.131928 -0.100623
vt 0.1283503 -0.0988342
vt 0.1270086 -0.1015175
vt -0.06130709 -0.04036592
vt -0.05849299 -0.04008166
vt -0.0587945 -0.03709684
vt -0.06160861 -0.03738111
vt -0.03616714 -0.03329016
vt -0.0325623 -0.03336158
vt -0.03250288 -0.03036216
vt -0.03610772 -0.03029074
vt -0.05071954 -0.05421742
vt -0.05172855 -0.05139219
vt -0.05643726 -0.05307388
vt -0.05542825 -0.05589911
vt -0.04103544 -0.1710003
vt -0.03871048 -0.1677453
vt -0.04277916 -0.1648391
vt -0.04231416 -0.1676291
vt 0.04103542 -0.1710003
vt 0.04231415 -0.1676291
vt 0.04277914 -0.1648391
vt 0.03871047 -0.1677453
vt -0.131928 -0.1006231
vt -0.1305864 -0.1033064
vt -0.1270087 -0.1015175
vt -0.1283503 -0.09883422
vt 0.1193865 -0.1086086
vt 0.1169677 -0.1071425
vt 0.1154127 -0.1097081
vt 0.1178316 -0.1111741
vt 0.1105726 -0.09927691
vt 0.1074462 -0.09748079
vt 0.1059517 -0.1000821
vt 0.1090781 -0.1018782
vt -0.05172848 -0.05139218
vt -0.05071946 -0.05421741
vt -0.04601075 -0.05253572
vt -0.04701976 -0.04971049
o group38662787
g mesh38662787
usemtl mat21
f 4/4/1 3/3/1 2/2/1 1/1/1
f 8/8/2 7/7/2 6/6/2 5/5/2
f 2/12/3 8/11/3 5/10/3 1/9/3
f 6/16/4 7/15/4 3/14/4 4/13/4
f 5/20/5 6/19/5 4/18/5 1/17/5
f 3/24/6 7/23/6 8/22/6 2/21/6
o group222130573
g mesh222130573
usemtl mat21
f 12/28/7 11/27/7 10/26/7 9/25/7
f 16/32/8 15/31/8 14/30/8 13/29/8
f 10/36/9 16/35/9 13/34/9 9/33/9
f 14/40/10 15/39/10 11/38/10 12/37/10
f 13/43/11 12/42/11 9/41/11
f 11/46/12 16/45/12 10/44/12
f 13/49/13 14/48/13 12/47/13
f 11/52/14 15/51/14 16/50/14
o group1613771531
g mesh1613771531
usemtl mat21
f 20/56/15 19/55/15 18/54/15 17/53/15
f 24/60/16 23/59/16 22/58/16 21/57/16
f 18/64/17 24/63/17 21/62/17 17/61/17
f 22/68/18 23/67/18 19/66/18 20/65/18
f 21/72/19 22/71/19 20/70/19 17/69/19
f 19/76/20 23/75/20 24/74/20 18/73/20
o group1179851404
g mesh1179851404
usemtl mat21
f 28/80/21 27/79/21 26/78/21 25/77/21
f 32/84/22 31/83/22 30/82/22 29/81/22
f 26/88/23 32/87/23 29/86/23 25/85/23
f 30/92/24 31/91/24 27/90/24 28/89/24
f 29/96/25 30/95/25 28/94/25 25/93/25
f 27/100/26 31/99/26 32/98/26 26/97/26
o group645068596
g mesh645068596
usemtl mat21
f 36/104/27 35/103/27 34/102/27 33/101/27
f 40/108/28 39/107/28 38/106/28 37/105/28
f 34/112/29 40/111/29 37/110/29 33/109/29
f 38/116/30 39/115/30 35/114/30 36/113/30
f 37/120/31 38/119/31 36/118/31 33/117/31
f 35/124/32 39/123/32 40/122/32 34/121/32
o group260099231
g mesh260099231
usemtl mat21
f 44/128/33 43/127/33 42/126/33 41/125/33
f 48/132/34 47/131/34 46/130/34 45/129/34
f 42/136/35 48/135/35 45/134/35 41/133/35
f 46/140/36 47/139/36 43/138/36 44/137/36
f 45/144/37 46/143/37 44/142/37 41/141/37
f 43/148/38 47/147/38 48/146/38 42/145/38
o group1534535969
g mesh1534535969
usemtl mat21
f 52/152/39 51/151/39 50/150/39 49/149/39
f 56/156/40 55/155/40 54/154/40 53/153/40
f 50/160/41 56/159/41 53/158/41 49/157/41
f 54/164/42 55/163/42 51/162/42 52/161/42
f 53/168/43 54/167/43 52/166/43 49/165/43
f 51/172/44 55/171/44 56/170/44 50/169/44
