mtllib materials.mtl
v -0.0214808 0.008298039 0.09744084
v 0.09556061 -0.00300765 -0.02973419
v 0.0951674 -0.007991552 -0.02965301
v -0.02187401 0.003314257 0.09752202
v -0.07290018 0.009661078 -0.06795019
v -0.07329339 0.004677296 -0.06786901
vn 0.7329341 -0.04677149 0.67869
vn 0.732934 -0.04677195 0.67869
vn 0.21874 -0.03314457 -0.9752201
vn 0.21874 -0.03314291 -0.9752201
vn -0.951674 0.07991619 0.2965301
vn -0.951674 0.07991566 0.2965301
vn 0.07864296 0.9967706 -0.01623507
vn -0.07864372 -0.9967706 0.01623531
vt 0.5777345 0.5261935
vt 0.5730467 0.5334753
vt 0.5728365 0.53334
vt 0.5777345 0.5261935
vt 0.5728365 0.53334
vt 0.5775243 0.5260582
vt 0.4520382 0.5709243
vt 0.447169 0.5637626
vt 0.4473757 0.5636221
vt 0.4520381 0.5709243
vt 0.4473757 0.563622
vt 0.4522448 0.5707838
vt 0.4548409 0.5760839
vt 0.44621 0.5753716
vt 0.4462306 0.5751225
vt 0.4548409 0.5760839
vt 0.4462306 0.5751225
vt 0.4548615 0.5758347
vt 0.4610953 0.5023819
vt 0.4564159 0.5096691
vt 0.4524447 0.501973
vt 0.5475553 0.501973
vt 0.543584 0.509669
vt 0.5389047 0.5023818
o group2004479427
g mesh2004479427
usemtl mat21
f 3/3/1 2/2/1 1/1/1
f 4/6/2 3/5/2 1/4/2
f 6/9/3 5/8/3 2/7/3
f 3/12/4 6/11/4 2/10/4
f 4/15/5 1/14/5 5/13/5
f 6/18/6 4/17/6 5/16/6
f 1/21/7 2/20/7 5/19/7
f 6/24/8 3/23/8 4/22/8
