mtllib materials.mtl
v 0 0.3299999 0
v -0.1428942 0 0.08249998
v -0.165 0 0
v -0.08249999 0 0.1428942
v 7.450581E-09 0 0.165
v 0.0825 0 0.1428941
v 0.1428942 0 0.08250001
v 0.165 0 0
v 0.1428942 0 -0.08250004
v 0.08249998 0 -0.1428942
v 0 0 -0.165
v -0.08249999 0 -0.1428942
v -0.1428942 0 -0.08249995
v -4.470348E-08 -0.33 0
v 0.1428942 -1.192093E-07 0.08250007
v 0.165 -1.192093E-07 8.940697E-08
v 0.0825 -1.192093E-07 0.1428943
v 7.450581E-09 -1.192093E-07 0.1650001
v -0.08249999 -1.192093E-07 0.1428942
v -0.1428941 0 0.08250004
v -0.1649999 0 2.980232E-08
v -0.1428941 0 -0.08249998
v -0.08249991 0 -0.1428941
v 7.450581E-08 0 -0.1649999
v 0.08250005 -1.192093E-07 -0.1428941
v 0.1428943 -1.192093E-07 -0.08249986
vn -0.8697965 0.4348983 0.2330613
vn -0.6367354 0.4348983 0.636735
vn -0.2330608 0.4348983 0.8697966
vn 0.2330614 0.4348983 0.8697965
vn 0.636735 0.4348983 0.6367354
vn 0.8697965 0.4348983 0.2330612
vn 0.8697965 0.4348983 -0.2330613
vn 0.6367352 0.4348983 -0.6367353
vn 0.233061 0.4348983 -0.8697965
vn -0.233061 0.4348983 -0.8697965
vn -0.6367354 0.4348983 -0.636735
vn -0.8697966 0.4348983 -0.233061
vn 0 -1 0
vn 0 -1 0
vn 0 -1 0
vn 0 -1 0
vn 0 -1 0
vn 0 -1 0
vn 0 -1 0
vn 0 -1 0
vn 0 -1 0
vn 0 -1 0
vn 0.8697964 -0.4348985 0.2330614
vn 0.6367351 -0.4348985 0.6367352
vn 0.2330612 -0.4348985 0.8697964
vn -0.2330618 -0.4348984 0.8697963
vn -0.6367356 -0.4348982 0.636735
vn -0.8697966 -0.434898 0.2330611
vn -0.8697966 -0.434898 -0.2330617
vn -0.6367352 -0.434898 -0.6367355
vn -0.2330611 -0.434898 -0.8697967
vn 0.233061 -0.4348982 -0.8697966
vn 0.6367354 -0.4348983 -0.636735
vn 0.8697965 -0.4348985 -0.2330609
vn 0 1 0
vn 0 1 0
vn 0 1 0
vn 0 1 0
vn 9.869268E-07 1 9.869276E-07
vn 3.612404E-07 1 -9.679388E-08
vn 4.171243E-07 1 1.117682E-07
vn 4.171242E-07 1 4.171242E-07
vn 2.644458E-07 1 9.869266E-07
vn 1.973854E-06 1 -1.973853E-06
vt 0.47491 0.5756983
vt 0.4745103 0.5572551
vt 0.4787618 0.5576574
vt 0.5251384 0.5708331
vt 0.514743 0.5555934
vt 0.5185257 0.5536114
vt 0.5563135 0.5466314
vt 0.5407671 0.5367005
vt 0.5434672 0.5333919
vt 0.5714321 0.5222368
vt 0.5538968 0.5165073
vt 0.5556841 0.5126288
vt 0.5791935 0.5029273
vt 0.5609299 0.5003288
vt 0.5620167 0.496199
vt 0.5835171 0.4892884
vt 0.5650696 0.4892885
vt 0.5655639 0.4850467
vt 0.5835171 0.4722992
vt 0.5655639 0.4765411
vt 0.5650696 0.4722992
vt 0.4115209 0.5170365
vt 0.4296426 0.5135844
vt 0.4299508 0.5178438
vt 0.41136 0.519578
vt 0.4288263 0.5136417
vt 0.4297233 0.517817
vt 0.4129012 0.523558
vt 0.4291966 0.5149107
vt 0.4307483 0.5188893
vt 0.4185696 0.5340769
vt 0.432561 0.5220538
vt 0.4349506 0.5255931
vt 0.4352436 0.5545077
vt 0.4442951 0.5384334
vt 0.4477486 0.5409454
vt 0.5107141 0.483543
vt 0.514227 0.4811147
vt 0.5184835 0.4807682
vt 0.5107141 0.483543
vt 0.5184835 0.4807682
vt 0.5223429 0.4825964
vt 0.5107141 0.483543
vt 0.5223429 0.4825964
vt 0.5247712 0.4861093
vt 0.5107141 0.483543
vt 0.5247712 0.4861093
vt 0.5251176 0.4903657
vt 0.5107141 0.483543
vt 0.5251176 0.4903657
vt 0.5232895 0.4942252
vt 0.5107141 0.483543
vt 0.5232895 0.4942252
vt 0.5197766 0.4966535
vt 0.5107141 0.483543
vt 0.5197766 0.4966535
vt 0.5155202 0.4969999
vt 0.5107141 0.483543
vt 0.5155202 0.4969999
vt 0.5116607 0.4951718
vt 0.5107141 0.483543
vt 0.5116607 0.4951718
vt 0.5092325 0.4916589
vt 0.5107141 0.483543
vt 0.5092325 0.4916589
vt 0.5088859 0.4874024
vt 0.547277 0.5304764
vt 0.559782 0.5440388
vt 0.5563285 0.5465508
vt 0.5568025 0.5174487
vt 0.5731835 0.5259324
vt 0.5707939 0.5294717
vt 0.559414 0.5127606
vt 0.577261 0.5174292
vt 0.5757093 0.5214078
vt 0.5595871 0.5133365
vt 0.5779504 0.5150975
vt 0.5770534 0.5192728
vt 0.5588408 0.514892
vt 0.5772706 0.5140847
vt 0.5769624 0.518344
vt 0.4459989 0.475739
vt 0.4275513 0.475739
vt 0.4280456 0.4714972
vt 0.4459989 0.485849
vt 0.4280457 0.4900908
vt 0.4275514 0.485849
vt 0.4495438 0.4953645
vt 0.432367 0.5020929
vt 0.4312802 0.497963
vt 0.4555561 0.5098003
vt 0.4398081 0.5194082
vt 0.4380208 0.5155297
vt 0.4667091 0.5278434
vt 0.4538628 0.5410829
vt 0.4511627 0.5377743
vt 0.4886528 0.5445113
vt 0.4820402 0.561733
vt 0.4782574 0.559751
vt 0.5222908 0.5461146
vt 0.5261427 0.5641556
vt 0.5218912 0.5645579
vt 0.4844798 0.4969999
vt 0.4802234 0.4966535
vt 0.4767105 0.4942252
vt 0.4844798 0.4969999
vt 0.4767105 0.4942252
vt 0.4748823 0.4903657
vt 0.4844798 0.4969999
vt 0.4748823 0.4903657
vt 0.4752288 0.4861093
vt 0.4844798 0.4969999
vt 0.4752288 0.4861093
vt 0.4776571 0.4825964
vt 0.4844799 0.4969999
vt 0.4776572 0.4825963
vt 0.4815166 0.4807682
vt 0.4844798 0.4969999
vt 0.4815165 0.4807682
vt 0.485773 0.4811147
vt 0.4844799 0.4969999
vt 0.485773 0.4811147
vt 0.4892859 0.483543
vt 0.4844799 0.4969999
vt 0.4892859 0.483543
vt 0.4911141 0.4874024
vt 0.4844799 0.4969999
vt 0.4911141 0.4874024
vt 0.4907677 0.4916589
vt 0.4844798 0.4969998
vt 0.4907675 0.4916587
vt 0.4883392 0.4951716
o group797009475
g mesh797009475
usemtl mat21
f 3/3/1 2/2/1 1/1/1
f 2/6/2 4/5/2 1/4/2
f 4/9/3 5/8/3 1/7/3
f 5/12/4 6/11/4 1/10/4
f 6/15/5 7/14/5 1/13/5
f 7/18/6 8/17/6 1/16/6
f 8/21/7 9/20/7 1/19/7
f 9/24/8 10/23/8 1/22/8
f 10/27/9 11/26/9 1/25/9
f 11/30/10 12/29/10 1/28/10
f 12/33/11 13/32/11 1/31/11
f 13/36/12 3/35/12 1/34/12
f 2/39/13 3/38/13 13/37/13
f 4/42/14 2/41/14 13/40/14
f 5/45/15 4/44/15 13/43/15
f 6/48/16 5/47/16 13/46/16
f 7/51/17 6/50/17 13/49/17
f 8/54/18 7/53/18 13/52/18
f 9/57/19 8/56/19 13/55/19
f 10/60/20 9/59/20 13/58/20
f 11/63/21 10/62/21 13/61/21
f 12/66/22 11/65/22 13/64/22
o group624951853
g mesh624951853
usemtl mat21
f 16/69/23 15/68/23 14/67/23
f 15/72/24 17/71/24 14/70/24
f 17/75/25 18/74/25 14/73/25
f 18/78/26 19/77/26 14/76/26
f 19/81/27 20/80/27 14/79/27
f 20/84/28 21/83/28 14/82/28
f 21/87/29 22/86/29 14/85/29
f 22/90/30 23/89/30 14/88/30
f 23/93/31 24/92/31 14/91/31
f 24/96/32 25/95/32 14/94/32
f 25/99/33 26/98/33 14/97/33
f 26/102/34 16/101/34 14/100/34
f 15/105/35 16/104/35 26/103/35
f 17/108/36 15/107/36 26/106/36
f 18/111/37 17/110/37 26/109/37
f 19/114/38 18/113/38 26/112/38
f 20/117/39 19/116/39 26/115/39
f 21/120/40 20/119/40 26/118/40
f 22/123/41 21/122/41 26/121/41
f 23/126/42 22/125/42 26/124/42
f 24/129/43 23/128/43 26/127/43
f 25/132/44 24/131/44 26/130/44
