mtllib materials.mtl
v 0.06749999 -0.01249993 -0.07749999
v 0.06749999 -0.01250005 0.05250001
v 0.06749999 0.1174999 0.05250004
v 0.06749999 0.1175001 -0.07749996
v -0.09250001 -0.01249993 -0.07749999
v -0.09250001 0.1175001 -0.07749996
v -0.09250001 0.1174999 0.05250004
v -0.09250001 -0.01250005 0.05250001
v -0.05250014 -0.1024998 0.05249998
v 0.02676607 -0.01672006 0.05249994
v 0.0267661 -0.01672006 -0.0775
v -0.05250013 -0.1024998 -0.07750011
v -0.09249994 -0.01249981 0.05249998
v -0.09249999 -0.01249981 -0.07749996
v 0.03750005 -0.01249993 -0.07750006
v 0.03750002 -0.01249993 0.05249998
vn 1 0 0
vn 1 0 0
vn -1 0 0
vn -1 0 0
vn 0 -1 -9.169945E-07
vn 0 -1 -9.169945E-07
vn 0 1 9.169945E-07
vn 0 1 9.169945E-07
vn 0 2.292486E-07 -1
vn 0 2.292486E-07 -1
vn 0 -2.292486E-07 1
vn 0 -2.292486E-07 1
vn 0.7344412 -0.6786724 1.724106E-07
vn 0.7344411 -0.6786724 8.418475E-08
vn 9.169942E-07 1 -3.153297E-13
vn 9.169947E-07 1 2.15265E-13
vn -9.71363E-12 -1.05929E-05 1
vn -7.450691E-07 -1.22288E-05 -1
vn -0.9138122 -0.4061371 -1.04745E-07
vn -0.9138124 -0.4061367 3.217772E-07
vn 0.3658942 -0.9306564 8.589387E-08
vn 0.3658942 -0.9306564 8.388078E-08
vn 3.808105E-07 1.692482E-07 1
vn -2.578192E-07 1.541098E-06 -1
vt 0.5371993 0.5477778
vt 0.5424885 0.5439997
vt 0.5462666 0.549289
vt 0.5371993 0.5477778
vt 0.5462666 0.549289
vt 0.5409773 0.553067
vt 0.4628007 0.5477778
vt 0.4590227 0.553067
vt 0.4537334 0.549289
vt 0.4628007 0.5477778
vt 0.4537334 0.549289
vt 0.4575115 0.5439997
vt 0.5055495 0.5081057
vt 0.5028588 0.5005718
vt 0.5089802 0.4983856
vt 0.5055495 0.5081057
vt 0.5089802 0.4983856
vt 0.5116708 0.5059195
vt 0.4944505 0.5081058
vt 0.4883292 0.5059195
vt 0.4910199 0.4983856
vt 0.4944505 0.5081058
vt 0.4910199 0.4983856
vt 0.4971412 0.5005718
vt 0.4501357 0.5355535
vt 0.4443219 0.5384604
vt 0.4407442 0.531305
vt 0.4501357 0.5355535
vt 0.4407442 0.531305
vt 0.446558 0.528398
vt 0.5498643 0.5355535
vt 0.553442 0.528398
vt 0.5592558 0.531305
vt 0.5498643 0.5355535
vt 0.5592558 0.531305
vt 0.5556781 0.5384604
vt 0.5225755 0.5382616
vt 0.5244626 0.5437881
vt 0.5183114 0.5458885
vt 0.5225755 0.5382616
vt 0.5183114 0.5458885
vt 0.5164242 0.5403621
vt 0.4910198 0.4983855
vt 0.4971412 0.5005717
vt 0.494955 0.5066931
vt 0.4910198 0.4983855
vt 0.494955 0.5066931
vt 0.4888337 0.5045068
vt 0.5534422 0.528398
vt 0.5505353 0.5342118
vt 0.5505866 0.5336373
vt 0.4494137 0.5336376
vt 0.449465 0.534212
vt 0.4465581 0.5283982
vt 0.4494765 0.4980916
vt 0.4503914 0.5045269
vt 0.4455159 0.5052199
vt 0.4494765 0.4980917
vt 0.4455159 0.5052201
vt 0.4446011 0.4987847
vt 0.5174279 0.5248711
vt 0.517604 0.5254202
vt 0.5114145 0.5274052
vt 0.5174279 0.5248711
vt 0.5114145 0.5274052
vt 0.5112384 0.5268561
vt 0.5505864 0.5336374
vt 0.5485227 0.5281745
vt 0.553442 0.528398
vt 0.446558 0.528398
vt 0.4514773 0.5281744
vt 0.4494136 0.5336374
o group524071205
g mesh524071205
usemtl mat21
f 3/3/1 2/2/1 1/1/1
f 4/6/2 3/5/2 1/4/2
f 7/9/3 6/8/3 5/7/3
f 8/12/4 7/11/4 5/10/4
f 8/15/5 5/14/5 1/13/5
f 2/18/6 8/17/6 1/16/6
f 7/21/7 3/20/7 4/19/7
f 6/24/8 7/23/8 4/22/8
f 6/27/9 4/26/9 1/25/9
f 5/30/10 6/29/10 1/28/10
f 7/33/11 8/32/11 2/31/11
f 3/36/12 7/35/12 2/34/12
o group288490022
g mesh288490022
usemtl mat21
f 11/39/13 10/38/13 9/37/13
f 12/42/14 11/41/14 9/40/14
f 15/45/15 14/44/15 13/43/15
f 16/48/16 15/47/16 13/46/16
f 10/51/17 16/50/17 13/49/17
f 14/54/18 15/53/18 11/52/18
f 14/57/19 12/56/19 9/55/19
f 13/60/20 14/59/20 9/58/20
f 15/63/21 16/62/21 10/61/21
f 11/66/22 15/65/22 10/64/22
f 13/69/23 9/68/23 10/67/23
f 11/72/24 12/71/24 14/70/24
